<svg xmlns="http://www.w3.org/2000/svg" viewBox="0 0 200 200">
  <!-- Background circle with gradient -->
  <defs>
    <linearGradient id="bgGradient" x1="0%" y1="0%" x2="100%" y2="100%">
      <stop offset="0%" style="stop-color:#ff3b30;stop-opacity:1" />
      <stop offset="100%" style="stop-color:#ff6b59;stop-opacity:1" />
    </linearGradient>
  </defs>
  <circle cx="100" cy="100" r="95" fill="url(#bgGradient)"/>

  <!-- Top bun -->
  <ellipse cx="100" cy="70" rx="60" ry="20" fill="#f4a460"/>
  <ellipse cx="100" cy="70" rx="60" ry="15" fill="#daa520"/>

  <!-- Sesame seeds -->
  <circle cx="80" cy="67" r="2.5" fill="#fff"/>
  <circle cx="95" cy="65" r="2.5" fill="#fff"/>
  <circle cx="110" cy="66" r="2.5" fill="#fff"/>
  <circle cx="120" cy="69" r="2.5" fill="#fff"/>
  <circle cx="70" cy="72" r="2.5" fill="#fff"/>

  <!-- Lettuce -->
  <path d="M 45 85 Q 60 80 75 83 Q 90 86 100 85 Q 110 84 125 85 Q 140 86 155 83 L 155 90 Q 140 93 125 92 Q 110 91 100 92 Q 90 93 75 91 Q 60 89 45 92 Z" fill="#7cb342"/>

  <!-- Cheese -->
  <path d="M 48 98 L 152 98 L 148 108 L 52 108 Z" fill="#ffd54f"/>
  <circle cx="70" cy="103" r="3" fill="#ffb300"/>
  <circle cx="90" cy="104" r="2.5" fill="#ffb300"/>
  <circle cx="110" cy="103" r="3" fill="#ffb300"/>
  <circle cx="130" cy="104" r="2.5" fill="#ffb300"/>

  <!-- Burger patty -->
  <ellipse cx="100" cy="118" rx="52" ry="12" fill="#8b4513"/>
  <ellipse cx="100" cy="115" rx="52" ry="10" fill="#a0522d"/>

  <!-- Tomato -->
  <ellipse cx="100" cy="125" rx="48" ry="8" fill="#ff6347"/>

  <!-- Bottom bun -->
  <ellipse cx="100" cy="138" rx="55" ry="15" fill="#daa520"/>
  <path d="M 45 138 Q 72.5 145 100 145 Q 127.5 145 155 138" fill="#cd853f"/>

  <!-- Accent circle -->
  <circle cx="100" cy="100" r="95" fill="none" stroke="#fff" stroke-width="4" opacity="0.3"/>
</svg>
